<?xml version="1.0" encoding="UTF-8"?>
<svg width="66px" height="40px" viewBox="0 0 66 40" version="1.1" xmlns="http://www.w3.org/2000/svg" xmlns:xlink="http://www.w3.org/1999/xlink">
    <title>31B2BFEA-434D-441A-B7EB-C737045E5A71</title>
    <g id="Symbols" stroke="none" stroke-width="1" fill="none" fill-rule="evenodd">
        <g id="Footer-xl-desktop" transform="translate(-534.000000, -657.000000)" fill="#A1B3D3">
            <path d="M599.748034,682.859325 C598.963034,681.879325 592.174034,681.025325 588.048034,683.969325 C587.409034,684.420325 587.525034,685.048325 588.223034,684.950325 C590.576034,684.665325 595.757034,684.047325 596.677034,685.245325 C597.597034,686.383325 595.641034,691.349325 594.770034,693.606325 C594.498034,694.273325 595.070034,694.538325 595.670034,694.028325 C599.534034,690.711325 600.532034,683.841325 599.748034,682.859325 L599.748034,682.859325 Z M546.975034,668.365325 C546.291034,668.278325 545.602034,668.236325 544.912034,668.238325 C543.755034,668.143325 542.601034,668.456325 541.649034,669.121325 C540.330034,670.452325 540.213034,672.559325 541.378034,674.028325 C542.003034,674.603325 542.835034,674.901325 543.683034,674.852325 L543.683034,674.891325 C544.456034,674.891325 545.223034,674.755325 545.950034,674.489325 C546.755034,674.203325 547.473034,673.713325 548.032034,673.066325 C548.391034,672.658325 548.647034,672.170325 548.778034,671.643325 C548.932034,671.000325 549.006034,670.341325 548.999034,669.680325 L548.999034,668.748325 C548.332034,668.585325 547.656034,668.457325 546.975034,668.365325 L546.975034,668.365325 Z M548.952034,664.637325 C549.081034,663.365325 548.713034,662.092325 547.925034,661.085325 C547.247034,660.388325 545.988034,660.055325 544.342034,660.055325 C543.545034,660.055325 542.752034,660.153325 541.979034,660.349325 C541.170034,660.539325 540.377034,660.792325 539.606034,661.104325 C539.353034,661.212325 539.095034,661.307325 538.832034,661.389325 C538.722034,661.436325 538.603034,661.460325 538.483034,661.458325 C538.183034,661.458325 538.028034,661.242325 538.028034,660.771325 L538.028034,659.681325 C538.007034,659.413325 538.060034,659.145325 538.183034,658.906325 C538.348034,658.704325 538.556034,658.542325 538.793034,658.435325 C539.674034,658.000325 540.604034,657.671325 541.563034,657.454325 C542.680034,657.172325 543.829034,657.030325 544.981034,657.032304 C547.596034,657.032304 549.504034,657.630325 550.734034,658.837325 C551.964034,660.044325 552.554034,661.860325 552.554034,664.303325 L552.554034,671.507325 L552.603034,671.507325 L552.603034,671.506325 C552.579034,672.169325 552.661034,672.831325 552.845034,673.468325 C553.040034,674.018325 553.273034,674.552325 553.542034,675.068325 C553.637034,675.225325 553.690034,675.404325 553.697034,675.588325 C553.674034,675.864325 553.519034,676.113325 553.281034,676.255325 L551.896034,677.188325 C551.726034,677.305325 551.529034,677.372325 551.325034,677.384325 C551.074034,677.364325 550.839034,677.252325 550.666034,677.070325 C550.367034,676.753325 550.104034,676.404325 549.882034,676.030325 C549.634034,675.602325 549.405034,675.163325 549.194034,674.715325 C548.425034,675.690325 547.442034,676.475325 546.321034,677.009325 C545.205034,677.541325 543.980034,677.807325 542.744034,677.786325 C541.944034,677.830325 541.144034,677.710325 540.391034,677.436325 C539.636034,677.160325 538.944034,676.735325 538.357034,676.186325 C537.253034,674.957325 536.674034,673.345325 536.744034,671.694325 C536.810034,670.044325 537.522034,668.485325 538.725034,667.354325 C540.241034,666.132325 542.155034,665.514325 544.100034,665.617325 C544.881034,665.623325 545.660034,665.682325 546.434034,665.794325 C547.247034,665.902325 548.080034,666.079325 548.952034,666.284325 L548.952034,664.637325 Z M592.619034,686.952325 C584.740034,690.318325 576.268034,692.073325 567.701034,692.114325 C556.232034,692.121325 544.964034,689.101325 535.035034,683.360325 C534.231034,682.869325 533.612034,683.713325 534.290034,684.342325 C543.244034,692.515325 554.884034,697.012325 566.936034,696.952325 C575.952034,696.952325 586.450034,694.076325 593.665034,688.679325 L593.665034,688.650325 C594.857034,687.757325 593.820034,686.402325 592.619034,686.952325 L592.619034,686.952325 Z M583.613034,676.609325 C584.412034,677.016325 585.262034,677.313325 586.140034,677.492325 C587.248034,677.759325 588.382034,677.894325 589.520034,677.894325 L589.490034,677.884325 C590.554034,677.887325 591.612034,677.728325 592.629034,677.413325 C593.518034,677.165325 594.347034,676.742325 595.069034,676.167325 C595.730034,675.629325 596.274034,674.961325 596.666034,674.204325 C597.061034,673.404325 597.258034,672.518325 597.238034,671.623325 C597.271034,670.507325 596.931034,669.413325 596.270034,668.513325 C595.383034,667.464325 594.192034,666.716325 592.861034,666.373325 L589.751034,665.392325 C588.869034,665.159325 588.044034,664.744325 587.331034,664.175325 C586.894034,663.768325 586.654034,663.192325 586.672034,662.595325 C586.652034,662.204325 586.738034,661.815325 586.921034,661.468325 C587.104034,661.122325 587.376034,660.833325 587.708034,660.632325 C588.602034,660.164325 589.606034,659.947325 590.614034,660.004325 C592.065034,659.982325 593.503034,660.281325 594.826034,660.878325 C595.094034,661.005325 595.377034,661.094325 595.669034,661.143325 C595.998034,661.143325 596.173034,660.897325 596.173034,660.426325 L596.173034,659.386325 C596.193034,659.124325 596.121034,658.863325 595.969034,658.650325 C595.801034,658.410325 595.574034,658.221325 595.311034,658.100325 C595.017034,657.937325 594.709034,657.802325 594.391034,657.698325 C593.982034,657.550325 593.565034,657.429325 593.141034,657.335325 C592.686034,657.247325 592.221034,657.159325 591.718034,657.099325 C591.230034,657.032325 590.738034,656.999325 590.246034,657.001325 C589.308034,656.985325 588.374034,657.114325 587.476034,657.384325 C586.648034,657.621325 585.872034,658.014325 585.192034,658.542325 C584.541034,659.030325 584.002034,659.653325 583.612034,660.367325 C583.201034,661.121325 582.997034,661.971325 583.022034,662.830325 C583.027034,663.996325 583.411034,665.130325 584.116034,666.059325 C585.016034,667.170325 586.248034,667.964325 587.632034,668.326325 L590.818034,669.307325 C591.637034,669.517325 592.396034,669.914325 593.036034,670.466325 C593.428034,670.889325 593.640034,671.449325 593.626034,672.026325 C593.636034,672.448325 593.536034,672.866325 593.336034,673.236325 C593.136034,673.606325 592.842034,673.916325 592.484034,674.136325 C591.508034,674.683325 590.395034,674.939325 589.278034,674.872325 C588.400034,674.872325 587.524034,674.783325 586.663034,674.607325 C585.835034,674.432325 585.026034,674.168325 584.252034,673.822325 C584.030034,673.733325 583.836034,673.606325 583.700034,673.606325 C583.576034,673.559325 583.445034,673.536325 583.313034,673.537325 C582.983034,673.537325 582.799034,673.753325 582.799034,674.224325 L582.799034,675.362325 C582.800034,675.576325 582.846034,675.787325 582.935034,675.981325 C583.095034,676.252325 583.331034,676.470325 583.613034,676.609325 L583.613034,676.609325 Z M554.859034,659.013325 C554.751034,658.726325 554.686034,658.426325 554.666034,658.120325 C554.654034,657.991325 554.690034,657.863325 554.767034,657.759325 C554.843034,657.656325 554.956034,657.585325 555.082034,657.561325 L557.358034,657.561325 C557.663034,657.522325 557.971034,657.603325 558.220034,657.786325 C558.430034,658.036325 558.579034,658.331325 558.656034,658.650325 L562.326034,673.370325 L565.745034,658.650325 C565.795034,658.326325 565.940034,658.025325 566.161034,657.786325 C566.427034,657.626325 566.733034,657.546325 567.043034,657.561325 L568.786034,657.561325 C569.096034,657.527325 569.409034,657.607325 569.667034,657.786325 C569.894034,658.021325 570.040034,658.324325 570.084034,658.650325 L573.551034,673.557325 L577.347034,658.650325 C577.414034,658.326325 577.568034,658.027325 577.792034,657.786325 C578.047034,657.624325 578.344034,657.546325 578.645034,657.561325 L580.688034,657.561325 C580.815034,657.544325 580.944034,657.579325 581.045034,657.658325 C581.147034,657.738325 581.214034,657.854325 581.230034,657.983325 L581.230034,658.120325 C581.240034,658.237325 581.240034,658.356325 581.230034,658.473325 C581.191034,658.663325 581.140034,658.850325 581.076034,659.033325 L575.788034,676.226325 C575.719034,676.554325 575.558034,676.854325 575.323034,677.089325 C575.076034,677.251325 574.785034,677.330325 574.490034,677.315325 L572.553034,677.315325 C572.245034,677.348325 571.934034,677.268325 571.681034,677.089325 C571.454034,676.844325 571.306034,676.536325 571.255034,676.206325 L567.856034,661.859325 L564.476034,676.177325 C564.432034,676.511325 564.287034,676.823325 564.060034,677.070325 C563.800034,677.241325 563.490034,677.321325 563.179034,677.296325 L561.309034,677.296325 C561.014034,677.319325 560.720034,677.239325 560.477034,677.070325 C560.252034,676.827325 560.095034,676.529325 560.021034,676.206325 L554.859034,659.013325 Z" id="AWS"></path>
        </g>
    </g>
</svg>