<?xml version="1.0" encoding="UTF-8"?>
<svg width="21px" height="40px" viewBox="0 0 21 40" version="1.1" xmlns="http://www.w3.org/2000/svg" xmlns:xlink="http://www.w3.org/1999/xlink">
    <title>3856A1B8-1C48-4172-86F0-FB5DAADED6D1</title>
    <g id="Symbols" stroke="none" stroke-width="1" fill="none" fill-rule="evenodd">
        <g id="Footer-xl-desktop" transform="translate(-1065.000000, -656.000000)" fill="#A1B3D3">
            <path d="M1076.429,681.431302 C1076.44501,681.444314 1076.46503,681.448317 1076.48505,681.443313 L1076.5491,681.443313 C1076.60515,681.396272 1076.68622,681.396272 1076.74227,681.443313 L1076.83835,681.533392 C1076.91042,681.581434 1077.03052,681.589441 1077.03052,681.70354 L1077.07957,681.70354 C1077.31277,681.835656 1077.4599,682.07987 1077.4649,682.348104 C1077.4649,682.388139 1077.38483,682.437182 1077.4649,682.470211 C1077.54497,682.502239 1077.54497,682.551282 1077.54497,682.600325 C1077.55098,682.62935 1077.56699,682.654372 1077.59101,682.671387 C1077.61503,682.688402 1077.64406,682.694407 1077.67308,682.689403 L1078.11447,682.649368 L1078.75603,682.592318 L1079.91204,682.485224 C1079.95208,682.485224 1079.99211,682.445189 1079.99211,682.445189 L1080.04016,682.363117 C1080.07218,682.283047 1080.06418,682.152934 1079.94407,682.152934 C1079.88002,682.135919 1079.88002,682.110897 1079.88002,682.062855 C1079.90003,682.001801 1079.90003,681.935744 1079.88002,681.87469 C1079.85699,681.831653 1079.85699,681.779607 1079.88002,681.736569 C1080.01513,681.586438 1080.06918,681.380258 1080.02414,681.183085 C1080.01213,681.15406 1080.01213,681.122032 1080.02414,681.093006 C1080.05016,681.066984 1080.07218,681.035957 1080.0892,681.002928 C1080.10922,680.945878 1080.15325,680.901839 1080.2093,680.880821 C1080.22231,680.883823 1080.23633,680.881822 1080.24934,680.880821 C1080.3214,680.831778 1080.33742,680.750707 1080.68272,681.035957 C1080.57562,680.944877 1080.49055,680.830777 1080.4335,680.701664 C1080.37745,680.617591 1080.33141,680.527512 1080.29738,680.432429 C1080.28037,680.344352 1080.23132,680.266283 1080.16126,680.212236 C1079.58276,679.666759 1079.00525,679.120281 1078.41974,678.582811 C1077.42387,677.648994 1076.42399,676.717179 1075.41811,675.787366 C1075.32503,675.717304 1075.27899,675.601203 1075.29801,675.486102 L1075.29801,672.153187 C1075.29801,671.932994 1075.31302,671.932994 1075.07281,671.932994 L1071.59777,671.932994 C1071.36557,671.932994 1071.36557,671.900966 1071.36557,672.129166 C1071.36957,672.142177 1071.36957,672.15619 1071.36557,672.169201 L1071.36557,672.251273 C1071.47366,672.374381 1071.5207,672.538524 1071.49368,672.699665 C1071.49068,672.803756 1071.46566,672.906846 1071.42162,673.000929 C1071.40961,673.029954 1071.40961,673.061982 1071.42162,673.091007 C1071.45765,673.177083 1071.45765,673.273167 1071.42162,673.359242 C1071.3996,673.4253 1071.36957,673.488355 1071.33254,673.547407 L1071.22044,673.79162 C1071.20042,673.832656 1071.20042,673.880698 1071.22044,673.921734 C1071.22545,673.959767 1071.22545,673.9978 1071.22044,674.035834 C1071.22244,674.106896 1071.26248,674.171953 1071.32453,674.206983 C1071.42462,674.288054 1071.5117,674.384138 1071.58276,674.492233 C1071.67184,674.601328 1071.72688,674.734445 1071.7429,674.874567 C1071.75891,674.924611 1071.75891,674.979659 1071.7429,675.029703 C1071.68985,675.126788 1071.68985,675.24389 1071.7429,675.339974 C1071.78293,675.372002 1071.78293,675.445066 1071.78293,675.445066 C1071.81896,675.514127 1071.81896,675.596199 1071.78293,675.665259 C1071.72588,675.714302 1071.78293,675.787366 1071.78293,675.787366 C1071.87101,675.86043 1071.95108,675.943502 1072.02314,676.03258 C1072.07319,676.097637 1072.12924,676.15769 1072.19129,676.210736 C1072.30439,676.284801 1072.34442,676.414915 1072.41649,676.521007 C1072.44251,676.572052 1072.44251,676.633106 1072.41649,676.68415 C1072.41649,676.725186 1072.36044,676.896336 1072.41649,676.822271 C1072.47254,676.749207 1072.52859,676.7412 1072.56862,676.822271 C1072.60065,676.904343 1072.67371,676.904343 1072.74578,676.904343 C1072.74578,676.953386 1072.70574,677.050471 1072.74578,677.050471 C1072.73176,677.133543 1072.75178,677.219619 1072.80182,677.287678 C1072.82585,677.341725 1072.82585,677.40378 1072.80182,677.457827 C1072.78481,677.546905 1072.81884,677.638985 1072.8899,677.695034 L1072.94595,677.743076 C1072.98999,677.824147 1073.08007,677.870188 1073.17115,677.857176 C1073.2362,677.847167 1073.30126,677.880196 1073.33129,677.939248 C1073.36732,678.014314 1073.36732,678.100389 1073.33129,678.175455 C1073.31527,678.248518 1073.29926,678.248518 1073.24321,678.248518 C1073.18716,678.248518 1073.18716,678.264532 1073.18716,678.322583 C1073.21418,678.38764 1073.2332,678.4557 1073.24321,678.525761 C1073.2372,678.566797 1073.24721,678.607833 1073.26923,678.642863 C1073.29125,678.676893 1073.32428,678.701915 1073.36332,678.712925 C1073.41636,678.736946 1073.4614,678.776981 1073.49143,678.827024 C1073.56549,678.95914 1073.65457,679.082248 1073.75666,679.194346 C1073.82872,679.234381 1073.78068,679.308446 1073.82872,679.348481 C1073.87676,679.389516 1073.98186,679.397523 1073.98186,679.46258 C1074.01489,679.515627 1074.06193,679.557664 1074.11798,679.584687 C1074.18203,679.625723 1074.19805,679.666759 1074.18203,679.74783 C1074.16602,679.829902 1074.18203,679.894959 1074.2621,679.894959 L1074.31815,679.894959 C1074.40723,679.926987 1074.40723,679.959015 1074.40723,680.049093 C1074.3712,680.157188 1074.3712,680.275291 1074.40723,680.383386 C1074.41924,680.406406 1074.41924,680.43443 1074.40723,680.457451 C1074.36619,680.529514 1074.35819,680.619592 1074.45527,680.619592 C1074.49531,680.669636 1074.55135,680.669636 1074.61541,680.669636 C1074.73752,680.624597 1074.87063,680.624597 1074.99274,680.669636 C1075.03978,680.681647 1075.08983,680.681647 1075.13687,680.669636 C1075.21694,680.658627 1075.29701,680.669636 1075.37207,680.699662 C1075.44614,680.729689 1075.51119,680.777731 1075.56224,680.839785 C1075.58826,680.863806 1075.60928,680.89083 1075.62629,680.921857 C1075.6363,680.943876 1075.65132,680.962893 1075.66933,680.977906 C1075.76141,681.02895 1075.8605,681.064982 1075.96359,681.083999 C1076.05167,681.083999 1076.10071,681.093006 1076.22081,681.083999 C1076.34092,681.075992 1076.40498,681.141048 1076.40498,681.264156 C1076.40097,681.302189 1076.40097,681.340223 1076.40498,681.378256 C1076.40397,681.398273 1076.41298,681.418291 1076.429,681.431302 L1076.429,681.431302 Z M1075.22494,667.395025 C1076.01964,667.367001 1076.81533,667.438063 1077.59301,667.60621 C1078.79006,667.879449 1079.92305,668.379887 1080.93093,669.0815 C1080.97197,669.116531 1081.02301,669.136548 1081.07606,669.13855 L1081.07606,668.184716 L1081.07606,668.183715 L1081.07606,664.093137 C1081.08507,663.255404 1080.90992,662.425679 1080.56261,661.665013 C1080.21631,660.90635 1079.70586,660.234762 1079.0673,659.699294 C1078.43175,659.165827 1077.6851,658.783493 1076.88439,658.580315 C1076.08369,658.377138 1075.24796,658.359122 1074.43926,658.527269 C1073.17515,658.790499 1072.04216,659.488109 1071.23846,660.498993 C1070.42775,661.516884 1069.99036,662.782991 1070.00037,664.08513 L1070.00037,669.114529 L1070.04942,669.114529 L1070.19354,669.02445 C1071.67684,668.003557 1073.42537,667.437062 1075.22494,667.395025 L1075.22494,667.395025 Z M1075.02477,686.779981 C1073.55448,686.702913 1072.12523,686.270535 1070.85912,685.517877 C1069.72013,684.866307 1068.72826,683.985536 1067.94858,682.930614 C1067.16389,681.869686 1066.6054,680.658627 1066.30915,679.373502 C1066.15901,678.769975 1066.07294,678.152434 1066.05192,677.531892 C1066.0269,677.00443 1066.04591,676.474967 1066.10897,675.950508 C1066.24809,674.747456 1066.60941,673.581436 1067.1759,672.5115 C1067.29601,672.300316 1067.41711,672.08813 1067.54523,671.875945 C1067.61329,671.774856 1067.64631,671.654751 1067.64131,671.533645 L1067.64131,663.678775 C1067.70036,662.128419 1068.21381,660.629107 1069.1176,659.368004 C1070.24259,657.745585 1071.94007,656.610592 1073.86876,656.190225 C1074.54735,656.033087 1075.24396,655.973035 1075.93957,656.011068 C1077.58,656.090137 1079.15438,656.680654 1080.44151,657.699545 C1082.35918,659.217873 1083.48417,661.525892 1083.49918,663.972031 L1083.49918,671.49361 C1083.49718,671.623724 1083.53421,671.750835 1083.60327,671.859931 C1084.27286,672.919858 1084.73426,674.097888 1084.96046,675.330967 L1084.96046,675.331967 L1084.98448,675.372002 C1085.22069,676.696161 1085.18365,678.053348 1084.87538,679.362493 C1084.56912,680.667634 1083.99662,681.896709 1083.19592,682.97165 C1082.39922,684.041585 1081.38934,684.933366 1080.23032,685.591942 C1079.07631,686.246514 1077.79719,686.650868 1076.47704,686.779981 C1075.99362,686.821017 1075.50819,686.821017 1075.02477,686.779981 Z M1083.95658,693.656996 C1083.88452,693.38776 1083.79644,693.143547 1083.71637,692.899333 C1083.6363,692.65512 1083.55623,692.401898 1083.46715,692.148677 C1083.37908,691.896456 1083.31502,691.668256 1083.22694,691.424043 L1082.52833,693.550903 L1082.52833,693.623967 L1083.95658,693.656996 Z M1085.97835,695.718799 C1086.00037,695.778852 1086.00537,695.842908 1085.99436,695.905963 L1084.81533,695.905963 C1084.71925,695.905963 1084.71124,695.905963 1084.67921,695.807877 L1084.35893,694.830022 C1084.35893,694.830022 1084.35893,694.756958 1084.3189,694.72493 C1084.27886,694.691901 1084.27886,694.650865 1084.22181,694.650865 L1082.22206,694.650865 C1082.19204,694.645861 1082.16201,694.653868 1082.13799,694.672884 C1082.11397,694.6909 1082.09796,694.718925 1082.09395,694.748951 C1082.08394,694.792989 1082.06993,694.837028 1082.05392,694.879065 C1081.95783,695.189336 1081.85374,695.498607 1081.74865,695.815884 C1081.74865,695.865928 1081.70861,695.905963 1081.64456,695.905963 L1080.46453,695.905963 C1080.46252,695.853917 1080.47654,695.802873 1080.50456,695.759835 C1081.20317,693.852167 1081.89378,691.953506 1082.59939,690.054845 C1082.68747,689.810632 1082.59939,689.851667 1082.89665,689.851667 L1083.65932,689.851667 C1083.78743,689.851667 1083.80345,689.851667 1083.8595,689.989788 C1083.99561,690.349103 1084.12473,690.707416 1084.26085,691.057722 C1084.83335,692.617086 1085.40585,694.170445 1085.97835,695.718799 L1085.97835,695.718799 Z M1079.53471,691.611206 C1079.51069,691.434051 1079.43362,691.268907 1079.31252,691.136791 C1079.19241,691.005677 1079.03428,690.915598 1078.86112,690.878566 C1078.76804,690.866555 1078.67396,690.866555 1078.58088,690.878566 L1077.56799,690.878566 C1077.44789,690.878566 1077.44789,690.878566 1077.44789,690.992665 L1077.43988,691.799371 L1077.43988,692.712169 C1077.43988,692.725181 1077.44489,692.737191 1077.45489,692.746199 C1077.4639,692.756208 1077.47491,692.760211 1077.48892,692.760211 L1078.57988,692.760211 C1078.69398,692.760211 1078.80808,692.744197 1078.91717,692.712169 C1079.07031,692.67814 1079.21043,692.600071 1079.31952,692.487973 C1079.42962,692.374874 1079.50369,692.231749 1079.53471,692.076614 C1079.56274,691.922479 1079.56274,691.765341 1079.53471,691.611206 L1079.53471,691.611206 Z M1080.07218,693.355732 C1079.75991,693.565916 1079.4016,693.701034 1079.02927,693.746074 C1078.82109,693.758084 1078.61191,693.758084 1078.40372,693.746074 L1077.56099,693.746074 C1077.44088,693.746074 1077.44088,693.746074 1077.44088,693.876188 L1077.44088,695.702785 C1077.44489,695.748825 1077.44489,695.794866 1077.44088,695.840906 C1077.44088,695.840906 1077.44088,695.880941 1077.39184,695.880941 L1076.30889,695.880941 C1076.22882,695.880941 1076.22081,695.880941 1076.22081,695.791863 C1076.21681,695.737816 1076.21681,695.682768 1076.22081,695.62872 L1076.21281,692.883319 L1076.21281,690.070859 C1076.2088,690.013809 1076.2088,689.95776 1076.21281,689.90071 C1076.21281,689.884696 1076.21781,689.868682 1076.22782,689.856672 C1076.23783,689.844661 1076.25284,689.837655 1076.26786,689.835606 L1078.53984,689.835606 C1078.88214,689.833652 1079.22244,689.894705 1079.54272,690.01481 C1079.83297,690.120903 1080.0912,690.298058 1080.29638,690.531262 C1080.50056,690.765467 1080.64468,691.046713 1080.71475,691.350979 C1080.81083,691.714297 1080.81083,692.096631 1080.71475,692.458948 C1080.60665,692.823267 1080.38045,693.139543 1080.07218,693.355732 L1080.07218,693.355732 Z M1069.81621,693.861174 L1068.67622,693.861174 C1068.67221,693.926231 1068.67221,693.991288 1068.67622,694.056345 C1068.6592,694.247512 1068.58313,694.428671 1068.45903,694.575799 C1068.33592,694.720926 1068.17077,694.824017 1067.98561,694.871058 C1067.77743,694.928108 1067.56024,694.945123 1067.34505,694.921102 C1067.15589,694.906088 1066.97573,694.836027 1066.8246,694.720926 C1066.67346,694.604825 1066.55836,694.447687 1066.49331,694.268531 C1066.42224,694.093378 1066.3742,693.910217 1066.34918,693.722053 C1066.27712,693.137541 1066.27712,692.547025 1066.34918,691.962514 C1066.3722,691.709292 1066.44927,691.465079 1066.57438,691.244886 C1066.70449,690.999672 1066.93669,690.823517 1067.20793,690.764466 C1067.3961,690.732438 1067.58926,690.732438 1067.77743,690.764466 C1067.99862,690.766468 1068.21181,690.850541 1068.37495,691.000672 C1068.5391,691.151805 1068.64319,691.356984 1068.66821,691.579178 C1068.6642,691.628221 1068.6642,691.677264 1068.66821,691.726307 C1068.6572,691.777352 1068.6572,691.829397 1068.66821,691.880442 C1069.06656,691.904463 1069.46591,691.904463 1069.86425,691.880442 C1069.87927,691.774349 1069.87426,691.667255 1069.84824,691.563164 C1069.78118,691.145799 1069.59202,690.759461 1069.30577,690.453194 C1069.01952,690.146926 1068.64919,689.933739 1068.24284,689.84366 C1067.88452,689.748577 1067.5112,689.726558 1067.14388,689.778604 C1066.80358,689.812633 1066.47529,689.926733 1066.18504,690.111895 C1065.89478,690.298058 1065.65257,690.548277 1065.47441,690.845537 C1065.27724,691.16982 1065.14313,691.529135 1065.08107,691.905464 C1064.97298,692.56404 1064.97298,693.235627 1065.08107,693.894203 C1065.13412,694.285546 1065.27724,694.658872 1065.49844,694.985158 C1065.64957,695.229371 1065.84874,695.440556 1066.08395,695.6057 C1066.31815,695.768843 1066.58238,695.882943 1066.86263,695.938992 C1067.36207,696.05109 1067.88252,696.031072 1068.37195,695.881942 C1068.74428,695.778852 1069.07857,695.57067 1069.33579,695.283418 C1069.59502,694.993165 1069.76717,694.635852 1069.83223,694.252517 C1069.85725,694.145423 1069.87326,694.036328 1069.88027,693.926231 C1069.88828,693.861174 1069.87226,693.861174 1069.81621,693.861174 L1069.81621,693.861174 Z M1075.4021,691.823392 C1075.42612,691.937492 1075.4021,691.896456 1075.33804,691.896456 L1074.31014,691.896456 C1074.18203,691.896456 1074.18203,691.896456 1074.15801,691.766342 C1074.13399,691.636228 1074.15801,691.603199 1074.11798,691.522129 C1074.09395,691.442058 1074.06393,691.362989 1074.0299,691.285922 C1073.93982,691.093754 1073.77868,690.943623 1073.5795,690.869558 C1073.26523,690.752455 1072.92293,690.738443 1072.60065,690.829523 C1072.37645,690.896581 1072.18528,691.044711 1072.06318,691.244886 C1071.9761,691.386009 1071.91205,691.540144 1071.87101,691.701285 C1071.80095,691.99254 1071.76292,692.2898 1071.75791,692.589062 C1071.73789,692.923354 1071.73789,693.257647 1071.75791,693.591939 C1071.77493,693.791113 1071.81296,693.987285 1071.87101,694.178452 L1071.91905,694.308566 C1071.98211,694.489724 1072.09621,694.649864 1072.24734,694.767968 C1072.39847,694.884069 1072.57963,694.95413 1072.7698,694.968143 C1072.98999,694.994165 1073.21318,694.977151 1073.42737,694.920101 C1073.72763,694.843033 1073.96584,694.613833 1074.05392,694.316573 C1074.09395,694.201472 1074.11798,694.080366 1074.12598,693.958259 C1074.12598,693.909216 1074.12598,693.893202 1074.20605,693.893202 L1075.21694,693.893202 C1075.27098,693.87919 1075.32903,693.887197 1075.37708,693.917223 L1075.37808,693.917223 C1075.38308,694.069357 1075.36407,694.220489 1075.32203,694.365616 C1075.24496,694.700909 1075.08482,695.01118 1074.85662,695.268405 C1074.63042,695.523629 1074.34317,695.717798 1074.02189,695.832899 C1073.48542,696.031072 1072.90191,696.067104 1072.34442,695.938992 C1072.03716,695.871933 1071.7479,695.736815 1071.49969,695.543646 C1071.24947,695.350477 1071.04429,695.104262 1070.89916,694.823016 C1070.72,694.493728 1070.6029,694.134413 1070.55486,693.762088 C1070.50281,693.26165 1070.50281,692.756208 1070.55486,692.25577 C1070.58088,691.854419 1070.68197,691.461075 1070.85112,691.097757 C1070.99725,690.76947 1071.21944,690.481218 1071.49969,690.256021 C1071.77893,690.031825 1072.10722,689.878691 1072.45652,689.810632 C1072.96997,689.702537 1073.50344,689.739569 1073.99787,689.916724 C1074.33617,690.035828 1074.63843,690.24301 1074.87364,690.51725 C1075.10884,690.791489 1075.26898,691.12378 1075.33804,691.481093 C1075.33804,691.595192 1075.37808,691.709292 1075.4021,691.823392 L1075.4021,691.823392 Z" id="CCPA"></path>
        </g>
    </g>
</svg>