<?xml version="1.0" encoding="UTF-8"?>
<svg width="24px" height="23px" viewBox="0 0 24 23" version="1.1" xmlns="http://www.w3.org/2000/svg" xmlns:xlink="http://www.w3.org/1999/xlink">
    <title>88D43C64-3C76-4BFB-BAF3-0F94EC712917</title>
    <g id="Symbols" stroke="none" stroke-width="1" fill="none" fill-rule="evenodd">
        <g id="Footer-xl-desktop" transform="translate(-401.000000, -531.000000)" fill="#FFFFFF">
            <g id="Social-Icons" transform="translate(255.000000, 531.000000)">
                <path d="M157.80487,0 C151.510501,0 146.40719,5.10331126 146.40719,11.3976801 C146.40719,17.0870221 150.574942,21.8018624 156.023983,22.6566884 L156.023983,14.6925595 L153.129922,14.6925595 L153.129922,11.3976801 L156.023983,11.3976801 L156.023983,8.88639125 C156.023983,6.03032258 157.726036,4.45174388 160.328506,4.45174388 C161.575603,4.45174388 162.880637,4.67494845 162.880637,4.67494845 L162.880637,7.47972756 L161.44358,7.47972756 C160.027418,7.47972756 159.585758,8.35829874 159.585758,9.25966527 L159.585758,11.3976801 L162.746714,11.3976801 L162.241417,14.6925595 L159.585758,14.6925595 L159.585758,22.6566884 C165.034799,21.8018624 169.20255,17.0870221 169.20255,11.3976801 C169.20255,5.10331126 164.099239,0 157.80487,0" id="Facebook"></path>
            </g>
        </g>
    </g>
</svg>