<?xml version="1.0" encoding="UTF-8"?>
<svg width="90px" height="41px" viewBox="0 0 90 41" version="1.1" xmlns="http://www.w3.org/2000/svg" xmlns:xlink="http://www.w3.org/1999/xlink">
    <title>D8BD98D5-EC31-478E-AF7C-57810B0B58CE</title>
    <g id="Symbols" stroke="none" stroke-width="1" fill="none" fill-rule="evenodd">
        <g id="Footer-xl-desktop" transform="translate(-656.000000, -656.000000)" fill="#A1B3D3">
            <path d="M729.791997,688.545492 C729.566997,688.668492 729.384997,688.856492 729.270997,689.085492 L729.270997,688.435492 L728.134997,688.435492 L728.134997,692.868492 L729.279997,692.868492 L729.279997,690.868492 C729.246997,690.521492 729.360997,690.175492 729.594997,689.916492 C729.824997,689.719492 730.121997,689.617492 730.425997,689.630492 C730.544997,689.618492 730.664997,689.618492 730.783997,689.630492 L730.783997,688.435492 L730.836997,688.435492 C730.735997,688.415492 730.632997,688.404492 730.530997,688.401492 C730.274997,688.373492 730.016997,688.424492 729.791997,688.545492 L729.791997,688.545492 Z M725.624997,690.626492 C725.635997,690.309492 725.526997,690.000492 725.318997,689.760492 C725.116997,689.541492 724.829997,689.421492 724.531997,689.431492 C724.234997,689.426492 723.949997,689.545492 723.744997,689.760492 C723.551997,690.010492 723.460997,690.322492 723.490997,690.634492 L723.438997,690.634492 L723.437997,690.635492 C723.416997,690.968492 723.526997,691.297492 723.744997,691.552492 C723.946997,691.771492 724.233997,691.892492 724.531997,691.882492 C724.831997,691.892492 725.119997,691.768492 725.318997,691.544492 C725.532997,691.286492 725.641997,690.959492 725.624997,690.626492 L725.624997,690.626492 Z M725.711997,686.383492 C725.711997,686.383492 726.787997,686.383492 726.787997,686.383492 L726.787997,692.046492 C726.773997,692.308492 726.773997,692.571492 726.787997,692.834492 L725.773997,692.834492 C725.743997,692.665492 725.729997,692.494492 725.729997,692.323492 C725.617997,692.521492 725.446997,692.678492 725.239997,692.773492 C725.006997,692.889492 724.747997,692.945492 724.487997,692.937492 C723.899997,692.953492 723.333997,692.717492 722.931997,692.288492 C722.147997,691.335492 722.147997,689.960492 722.931997,689.007492 C723.317997,688.568492 723.877997,688.324492 724.461997,688.340492 C724.947997,688.273492 725.430997,688.484492 725.711997,688.886492 L725.711997,686.383492 Z M720.613997,675.275493 L720.614997,675.275493 L720.641997,667.232493 C720.641997,664.678493 719.521997,662.158493 715.875997,662.158493 C715.095997,662.116493 714.317997,662.273493 713.615998,662.615493 C712.916998,662.955493 712.315998,663.468493 711.870998,664.106493 L711.783998,662.462493 L708.433998,662.462493 L708.433998,675.232493 L712.035998,675.232493 L712.035998,668.245493 C712.035998,666.643493 712.762998,665.258493 714.825997,665.258493 C716.889997,665.258493 717.029997,667.032493 717.029997,668.462493 L717.029997,675.275493 L720.613997,675.275493 Z M720.202997,690.869492 L719.205997,691.015492 C718.838997,691.067492 718.655997,691.258492 718.655997,691.570492 C718.653997,691.708492 718.710997,691.840492 718.812997,691.933492 C718.930997,692.043492 719.090997,692.091492 719.250997,692.077492 C719.495997,692.083492 719.735997,692.003492 719.922997,691.847492 C720.129997,691.640492 720.232997,691.350492 720.202997,691.059492 L720.202997,690.869492 Z M721.401997,692.176492 C721.399997,692.408492 721.417997,692.639492 721.454997,692.868492 L720.359997,692.868492 C720.319997,692.695492 720.301997,692.518492 720.306997,692.340492 C720.025997,692.781492 719.525997,693.034492 719.003997,692.998492 C718.598997,693.014492 718.202997,692.871492 717.901997,692.600492 C717.635997,692.353492 717.491997,692.002492 717.508997,691.639492 L717.483997,691.639492 C717.477997,691.310492 717.614997,690.994492 717.859997,690.773492 C718.125997,690.539492 718.458997,690.391492 718.812997,690.349492 L719.896997,690.184492 C720.124997,690.184492 720.229997,690.054492 720.229997,689.873492 C720.235997,689.714492 720.163997,689.562492 720.036997,689.466492 C719.876997,689.351492 719.683997,689.293492 719.486997,689.301492 C719.266997,689.292492 719.050997,689.366492 718.882997,689.509492 C718.737997,689.640492 718.649997,689.824492 718.637997,690.019492 L717.579997,689.795492 C717.623997,689.398492 717.825997,689.036492 718.139997,688.790492 C718.515997,688.483492 718.991997,688.326492 719.476997,688.349492 C720.007997,688.308492 720.531997,688.479492 720.936997,688.825492 C721.247997,689.144492 721.414997,689.575492 721.401997,690.020492 L721.401997,692.176492 Z M716.477997,688.435492 L715.279997,688.435492 L715.279997,691.033492 C715.293997,691.241492 715.231997,691.447492 715.104997,691.613492 C714.941997,691.772492 714.719997,691.856492 714.492997,691.847492 C714.264997,691.867492 714.040997,691.777492 713.889997,691.604492 C713.744998,691.423492 713.670998,691.196492 713.679998,690.964492 L713.679998,688.435492 L712.481998,688.435492 L712.481998,691.223492 C712.467998,691.677492 712.627998,692.119492 712.927998,692.461492 C713.247998,692.796492 713.697998,692.976492 714.160997,692.955492 C714.407997,692.954492 714.650997,692.904492 714.877997,692.808492 C715.088997,692.716492 715.266997,692.562492 715.384997,692.366492 C715.368997,692.522492 715.368997,692.678492 715.384997,692.834492 L716.521997,692.816492 C716.492997,692.555492 716.477997,692.292492 716.477997,692.028492 L716.477997,688.435492 Z M706.849998,672.280493 L706.849998,672.279493 C706.208998,672.482493 705.536998,672.570493 704.864998,672.539493 C703.605998,672.539493 703.246998,671.890493 703.246998,670.678493 L703.246998,665.388493 L706.579998,665.388493 L706.849998,662.392493 L703.246998,662.392493 L703.246998,658.791493 L699.644998,658.791493 L699.644998,670.981493 C699.644998,673.968493 700.640998,675.492493 704.016998,675.492493 C704.880998,675.503493 705.742998,675.402493 706.579998,675.189493 L706.849998,672.280493 Z M710.277998,689.673492 C710.318998,689.094492 710.100998,688.526492 709.682998,688.123492 C708.896998,687.383492 707.670998,687.383492 706.884998,688.123492 L706.840998,688.123492 L706.840998,688.124492 C706.427998,688.531492 706.211998,689.096492 706.246998,689.674492 C706.212998,690.254492 706.428998,690.821492 706.840998,691.232492 C707.217998,691.587492 707.720998,691.783492 708.240998,691.777492 C708.520998,691.782492 708.797998,691.725492 709.053998,691.613492 L708.056998,690.531492 L708.930998,689.821492 L709.927998,690.929492 C710.167998,690.555492 710.289998,690.117492 710.277998,689.673492 L710.277998,689.673492 Z M711.519998,689.683492 C711.542998,690.482492 711.264998,691.260492 710.740998,691.863492 L711.501998,692.730492 L710.688998,693.422492 L709.901998,692.557492 C709.394998,692.843492 708.822998,692.992492 708.240998,692.989492 C707.378998,693.002492 706.545998,692.676492 705.922998,692.080492 C705.284998,691.450492 704.944998,690.578492 704.987998,689.682492 L704.960998,689.682492 C704.923998,688.784492 705.274998,687.914492 705.922998,687.292492 C706.552998,686.707492 707.380998,686.383492 708.240998,686.38449 C709.100998,686.38449 709.930998,686.709492 710.557998,687.293492 C711.209998,687.913492 711.560998,688.785492 711.519998,689.683492 L711.519998,689.683492 Z M744.014996,665.457493 L745.274996,665.457493 L745.544996,662.463493 L744.320996,662.463493 C743.648996,662.414493 742.975996,662.535493 742.362996,662.815493 C741.750996,663.095493 741.220996,663.525493 740.822996,664.065493 L740.735996,662.462493 L737.316996,662.462493 L737.316996,675.301493 L740.910996,675.301493 L740.910996,668.531493 C740.890996,667.708493 741.210996,666.914493 741.794996,666.334493 C742.384996,665.752493 743.186996,665.436493 744.014996,665.457493 L744.014996,665.457493 Z M744.154996,673.622493 C744.425996,673.622493 744.644996,673.579493 744.644996,673.319493 C744.644996,673.059493 744.425996,673.016493 744.198996,673.016493 L743.795996,673.016493 L743.795996,673.622493 L744.154996,673.622493 Z M744.451996,673.882493 L745.037996,674.748493 L744.679996,674.748493 L744.136996,673.882493 L743.795996,673.882493 L743.822996,673.890493 L743.822996,674.756493 L743.507996,674.756493 L743.507996,672.756493 L744.268996,672.756493 C744.766996,672.756493 744.993996,672.929493 744.993996,673.319493 C744.993996,673.709493 744.766996,673.882493 744.451996,673.882493 L744.451996,673.882493 Z M745.477996,674.329493 C745.707996,673.801493 745.595996,673.186493 745.195996,672.772493 C745.138996,672.714493 745.077996,672.661493 745.011996,672.613493 C744.361996,672.140493 743.450996,672.284493 742.977996,672.934493 C742.812996,673.164493 742.720996,673.436493 742.711996,673.717493 C742.684996,674.105493 742.824996,674.486493 743.094996,674.766493 C743.367996,675.046493 743.745996,675.200493 744.136996,675.189493 C744.420996,675.192493 744.699996,675.112493 744.938996,674.959493 C745.177996,674.806493 745.364996,674.587493 745.477996,674.329493 L745.477996,674.329493 Z M746,673.717493 C745.998996,674.186493 745.806996,674.635493 745.468996,674.960493 C745.127996,675.286493 744.670996,675.463493 744.198996,675.449493 L744.198996,675.492493 C743.718996,675.508493 743.253996,675.326493 742.911996,674.989493 C742.570996,674.655493 742.384996,674.194493 742.397996,673.717493 C742.398996,673.248493 742.589996,672.799493 742.927996,672.474493 C743.268996,672.148493 743.726996,671.972493 744.198996,671.986493 C744.670996,671.971493 745.129996,672.147493 745.469996,672.474493 C745.808996,672.798493 746.000996,673.248493 746,673.717493 L746,673.717493 Z M743.332996,691.717492 C743.240996,691.606492 743.196996,691.462492 743.210996,691.318492 L743.210996,689.483492 L744.084996,689.483492 L744.084996,688.435492 L743.209996,688.435492 L743.209996,687.180492 L742.195996,687.128492 L742.195996,687.743492 C742.202996,687.925492 742.140996,688.105492 742.020996,688.245492 C741.887996,688.380492 741.702996,688.449492 741.513996,688.435492 L741.216996,688.435492 L741.216996,689.474492 L742.020996,689.474492 L742.020996,691.518492 C742.000996,691.888492 742.136996,692.249492 742.396996,692.513492 C742.680996,692.763492 743.051996,692.891492 743.428996,692.868492 C743.657996,692.875492 743.885996,692.840492 744.101996,692.764492 L744.101996,691.829492 C743.980996,691.846492 743.856996,691.846492 743.734996,691.829492 C743.591996,691.838492 743.449996,691.798492 743.332996,691.717492 L743.332996,691.717492 Z M738.916996,688.314492 C738.661996,688.314492 738.409996,688.373492 738.181996,688.487492 C737.953996,688.591492 737.763996,688.764492 737.639996,688.981492 L737.639996,688.435492 L736.476997,688.435492 L736.476997,692.869492 L737.674996,692.869492 L737.674996,690.349492 L737.675996,690.350492 L737.754996,690.315492 C737.700996,690.063492 737.753996,689.799492 737.902996,689.588492 C738.242996,689.262492 738.778996,689.262492 739.118996,689.588492 C739.258996,689.768492 739.329996,689.992492 739.319996,690.220492 L739.319996,692.816492 L740.516996,692.816492 L740.516996,690.054492 C740.535996,689.603492 740.389996,689.161492 740.106996,688.808492 C739.808996,688.467492 739.368996,688.285492 738.916996,688.314492 L738.916996,688.314492 Z M732.139997,667.379493 C732.099997,666.616493 731.742997,665.904493 731.154997,665.416493 C730.564997,664.922493 729.798997,664.693493 729.034997,664.782493 C728.281997,664.761493 727.545997,665.013493 726.964997,665.492493 C726.386997,665.968493 726.002997,666.639493 725.886997,667.379493 L732.139997,667.379493 Z M735.750997,669.023493 L735.733997,670.071493 L735.733997,670.072493 L725.886997,670.072493 C726.011997,670.837493 726.413997,671.532493 727.016997,672.025493 C727.621997,672.519493 728.385997,672.779493 729.166997,672.756493 C729.868997,672.798493 730.570997,672.671493 731.213997,672.386493 C731.854997,672.102493 732.418997,671.668493 732.856997,671.120493 L735.199997,672.850493 C734.489997,673.731493 733.582997,674.434493 732.551997,674.900493 C731.517997,675.368493 730.387997,675.588493 729.253997,675.543493 C725.248997,675.543493 722.257997,672.850493 722.257997,668.816493 C722.227997,667.917493 722.385997,667.021493 722.722997,666.187493 C723.059997,665.351493 723.567997,664.594493 724.212997,663.964493 C724.860997,663.332493 725.632997,662.840493 726.479997,662.520493 C727.327997,662.199493 728.233997,662.055493 729.139997,662.097493 C733.415997,662.097493 735.750997,664.617493 735.750997,669.023493 L735.750997,669.023493 Z M698.524998,691.587492 C698.334998,691.740492 698.094998,691.817492 697.851998,691.804492 C697.547998,691.807492 697.254998,691.688492 697.038998,691.474492 C696.826998,691.235492 696.710998,690.927492 696.714998,690.609492 C696.707998,690.290492 696.823998,689.980492 697.038998,689.743492 C697.250998,689.529492 697.540998,689.410492 697.842998,689.414492 L697.868998,689.414492 C698.079998,689.400492 698.288998,689.457492 698.462998,689.577492 C698.635998,689.696492 698.762998,689.871492 698.822998,690.072492 L699.898998,689.717492 C699.790998,689.302492 699.543998,688.936492 699.198998,688.678492 C698.805998,688.372492 698.315998,688.216492 697.816998,688.236492 C697.202998,688.222492 696.610998,688.464492 696.181998,688.903492 C695.530998,689.576492 695.343998,690.572492 695.705998,691.436492 C695.883998,691.860492 696.180998,692.222492 696.560998,692.480492 C696.942998,692.739492 697.390998,692.883492 697.851998,692.894492 C698.347998,692.912492 698.833998,692.755492 699.223998,692.453492 C699.563998,692.188492 699.807998,691.824492 699.923998,691.414492 L698.865998,691.067492 C698.806998,691.270492 698.687998,691.451492 698.524998,691.587492 L698.524998,691.587492 Z M734.097997,690.869492 L733.101997,691.015492 C732.733997,691.067492 732.550997,691.258492 732.550997,691.570492 C732.548997,691.708492 732.605997,691.840492 732.707997,691.933492 C732.825997,692.046492 732.986997,692.090492 733.147997,692.077492 C733.392997,692.082492 733.630997,692.003492 733.817997,691.847492 C734.024997,691.640492 734.127997,691.350492 734.097997,691.059492 L734.097997,690.869492 Z M735.296997,692.141492 C735.293997,692.373492 735.311997,692.605492 735.348997,692.834492 L734.255997,692.834492 C734.215997,692.661492 734.198997,692.483492 734.203997,692.305492 C733.925997,692.750492 733.423997,693.003492 732.900997,692.964492 C732.495997,692.980492 732.099997,692.836492 731.798997,692.565492 C731.550997,692.322492 731.416997,691.986492 731.430997,691.639492 L731.378997,691.639492 C731.373997,691.310492 731.510997,690.994492 731.754997,690.773492 C732.021997,690.539492 732.354997,690.391492 732.707997,690.349492 L733.792997,690.184492 C734.019997,690.184492 734.124997,690.054492 734.124997,689.873492 C734.130997,689.714492 734.058997,689.562492 733.931997,689.466492 C733.771997,689.351492 733.578997,689.293492 733.381997,689.301492 C733.161997,689.292492 732.945997,689.366492 732.777997,689.509492 C732.632997,689.641492 732.544997,689.824492 732.532997,690.019492 L731.474997,689.795492 C731.518997,689.398492 731.720997,689.036492 732.034997,688.790492 C732.863997,688.176492 733.995997,688.176492 734.824997,688.790492 C735.140997,689.106492 735.310997,689.539492 735.296997,689.985492 L735.296997,692.141492 Z M684.856999,669.682493 L684.358999,669.682493 C682.609999,669.682493 679.679999,669.769493 679.679999,671.500493 C679.679999,673.925493 684.856999,673.145493 684.856999,670.245493 L684.856999,669.682493 Z M684.892999,667.163493 L684.892999,666.990493 C684.892999,665.604493 683.894999,664.825493 682.102999,664.825493 C680.785999,664.832493 679.518999,665.326493 678.542999,666.210493 L676.470999,664.193493 C678.154999,662.841493 680.258999,662.121493 682.417999,662.158493 C686.509999,662.132493 688.354999,663.951493 688.354999,666.860493 L688.354999,675.275493 L685.206999,675.275493 L685.110999,674.011493 C684.573999,674.561493 683.920999,674.987493 683.197999,675.258493 C682.474999,675.528493 681.700999,675.638493 680.930999,675.578493 C678.499999,675.578493 676.155999,674.410493 676.112999,671.717493 C676.024999,667.466493 681.105999,667.163493 684.262999,667.163493 L684.892999,667.163493 Z M657.285,683.293492 L657.285,689.025492 L663.075,689.025492 L663.075,683.293492 L663.074,683.293492 L657.285,683.293492 Z M666.572,667.726493 L670.611999,667.726493 L670.611999,671.717493 C669.259999,672.276493 667.795999,672.514493 666.336,672.410493 C662.471,672.323493 659.996,669.639493 660.04,665.734493 C660.084,662.176493 662.331,659.535493 666.074,659.362493 C668.036999,659.202493 669.988999,659.772493 671.556999,660.964493 L674.039999,658.487493 C671.847999,656.732493 669.071999,655.851493 666.258,656.020493 C660.372,656.106493 656,659.925493 656,665.951493 C656,671.977493 660.32,675.579493 666.257,675.751493 C669.082999,675.857493 671.883999,675.196493 674.363999,673.838493 L674.363999,673.839493 L674.406999,673.839493 L674.406999,664.479493 L666.843,664.479493 L666.572,667.726493 Z M657.285,690.289492 L657.285,696.020492 L663.075,696.020492 L663.075,690.290492 L663.074,690.289492 L657.285,690.289492 Z M664.359,696.020492 L670.148999,696.020492 L670.148999,690.290492 L670.148999,690.289492 L664.359,690.289492 L664.359,696.020492 Z M664.359,689.025492 L670.148999,689.025492 L670.148999,683.293492 L664.359,683.293492 L664.359,689.025492 Z M678.289999,691.067492 L676.374999,686.505492 L674.738999,686.505492 L674.738999,692.825492 L675.928999,692.825492 L675.928999,688.435492 L677.756999,692.860492 L678.788999,692.860492 L680.624999,688.435492 L680.624999,692.834492 L681.848999,692.834492 L681.857999,686.505492 L680.161999,686.505492 L678.289999,691.067492 Z M685.643999,690.869492 L684.673999,691.033492 C684.305999,691.085492 684.122999,691.275492 684.122999,691.587492 C684.119999,691.725492 684.177999,691.858492 684.279999,691.951492 C684.390999,692.040492 684.529999,692.086492 684.673999,692.081492 L684.673999,692.080492 C684.924999,692.090492 685.171999,692.007492 685.363999,691.847492 C685.570999,691.640492 685.672999,691.350492 685.643999,691.059492 L685.643999,690.869492 Z M686.841999,692.176492 C686.839999,692.408492 686.857999,692.639492 686.894999,692.868492 L685.801999,692.868492 C685.765999,692.694492 685.750999,692.517492 685.757999,692.340492 C685.473999,692.783492 684.970999,693.035492 684.445999,692.998492 C684.040999,693.014492 683.645999,692.871492 683.343999,692.600492 C683.067999,692.358492 682.913999,692.006492 682.923999,691.639492 L682.924999,691.639492 C682.922999,691.310492 683.058999,690.996492 683.300999,690.773492 C683.566999,690.539492 683.899999,690.391492 684.253999,690.349492 L685.337999,690.184492 C685.565999,690.184492 685.670999,690.054492 685.670999,689.873492 C685.676999,689.714492 685.604999,689.562492 685.477999,689.466492 C685.317999,689.351492 685.124999,689.293492 684.927999,689.301492 C684.707999,689.292492 684.491999,689.366492 684.323999,689.509492 C684.178999,689.640492 684.090999,689.824492 684.078999,690.019492 L683.020999,689.795492 C683.069999,689.399492 683.273999,689.038492 683.588999,688.790492 C683.961999,688.482492 684.435999,688.325492 684.918999,688.349492 C685.448999,688.308492 685.973999,688.479492 686.378999,688.825492 C686.688999,689.144492 686.855999,689.575492 686.841999,690.020492 L686.841999,692.176492 Z M690.707999,689.709492 C690.512999,689.509492 690.242999,689.399492 689.963999,689.405492 C689.679999,689.398492 689.404999,689.508492 689.203999,689.708492 C688.807999,690.172492 688.807999,690.854492 689.203999,691.318492 C689.404999,691.524492 689.683999,691.632492 689.970999,691.619492 C690.247999,691.627492 690.515999,691.520492 690.707999,691.319492 C691.107998,690.857492 691.107998,690.171492 690.707999,689.709492 L690.707999,689.709492 Z M691.013998,688.435492 L692.167998,688.435492 L692.167998,692.349492 C692.188998,692.948492 691.982998,693.532492 691.590998,693.985492 C691.135998,694.455492 690.492999,694.697492 689.840999,694.643492 C689.313999,694.657492 688.797999,694.495492 688.372999,694.184492 C688.023999,693.909492 687.789999,693.514492 687.716999,693.076492 C687.716999,693.076492 687.690999,693.076492 687.690999,693.076492 L688.774999,692.790492 C688.805999,693.026492 688.928999,693.240492 689.115999,693.388492 C689.308999,693.548492 689.555999,693.630492 689.805999,693.621492 C690.593999,693.621492 690.986998,693.215492 690.986998,692.401492 L690.986998,692.081492 C690.866998,692.251492 690.704999,692.389492 690.514999,692.479492 C690.277999,692.592492 690.017999,692.648492 689.754999,692.643492 C689.199999,692.653492 688.664999,692.434492 688.275999,692.037492 C687.495999,691.174492 687.495999,689.861492 688.275999,688.998492 C688.654999,688.586492 689.193999,688.359492 689.753999,688.375492 C690.033999,688.362492 690.310999,688.421492 690.558999,688.548492 C690.749998,688.637492 690.908998,688.782492 691.013998,688.964492 L691.013998,688.435492 Z M698.210998,665.457493 L698.480998,662.462493 L697.615998,662.462493 C696.943998,662.413493 696.270998,662.534493 695.657998,662.814493 C695.044998,663.094493 694.515998,663.524493 694.117998,664.064493 L694.021998,662.462493 L690.602999,662.462493 L690.602999,675.293493 L694.204998,675.293493 L694.204998,668.522493 C694.165998,667.709493 694.467998,666.917493 695.037998,666.337493 C695.613998,665.755493 696.403998,665.437493 697.221998,665.457493 L698.210998,665.457493 Z M693.417998,692.834492 L694.572998,692.834492 L694.615998,688.435492 L693.417998,688.435492 L693.417998,692.834492 Z M694.496998,686.490492 C694.635998,686.629492 694.710998,686.819492 694.703998,687.015492 C694.705998,687.207492 694.630998,687.391492 694.493998,687.526492 C694.198998,687.804492 693.738998,687.804492 693.443998,687.526492 C693.317998,687.387492 693.251998,687.204492 693.260998,687.016492 L693.234989,687.016492 L693.234989,687.015492 C693.232998,686.611492 693.558998,686.281492 693.962998,686.279492 C693.964998,686.279492 693.966998,686.279492 693.968998,686.279492 C694.165998,686.274492 694.356998,686.351492 694.496998,686.490492 L694.496998,686.490492 Z" id="Gartner"></path>
        </g>
    </g>
</svg>