<?xml version="1.0" encoding="UTF-8"?>
<svg width="31px" height="40px" viewBox="0 0 31 40" version="1.1" xmlns="http://www.w3.org/2000/svg" xmlns:xlink="http://www.w3.org/1999/xlink">
    <title>54A3E7D0-6908-4576-8783-E373DCD6FF5D</title>
    <g id="Symbols" stroke="none" stroke-width="1" fill="none" fill-rule="evenodd">
        <g id="Footer-xl-desktop" transform="translate(-978.000000, -656.000000)" fill="#A1B3D3">
            <path d="M980.424408,672.239429 L981.973307,673.310051 L981.366955,671.502001 L982.899845,670.391356 L981.029759,670.391356 L980.449422,668.575302 L979.868085,670.392357 L978,670.392357 L979.48086,671.543025 L978.900523,673.36008 L980.424408,672.239429 Z M983.108966,693.581822 L984.674876,693.581822 L984.674876,694.134142 C984.297657,694.397295 983.846395,694.533374 983.387128,694.523368 C982.889839,694.493351 982.420567,694.280227 982.071364,693.92402 C981.730166,693.575818 981.538054,693.108547 981.537054,692.621264 C981.537054,692.137983 981.728165,691.671713 982.071364,691.318508 C982.420567,690.963301 982.889839,690.750178 983.387128,690.72016 C983.680298,690.722161 983.969466,690.798205 984.222613,690.940288 C984.476761,691.08237 984.687883,691.286489 984.834969,691.530631 L986.308824,690.785198 C986.00765,690.294913 985.5784,689.896682 985.068104,689.631528 C984.549803,689.362372 983.970467,689.234297 983.387128,689.261313 C982.910851,689.232296 982.433574,689.297334 981.983313,689.453425 C981.534052,689.610516 981.122813,689.853657 980.776612,690.16884 C980.431412,690.481021 980.154251,690.862243 979.96414,691.28749 C979.776031,691.708734 979.679975,692.163998 979.681977,692.625266 L979.681977,692.626267 C979.674973,693.088535 979.768027,693.546801 979.954135,693.974049 C980.140243,694.400297 980.416403,694.78452 980.764605,695.104706 C981.111807,695.422891 981.525047,695.669034 981.975308,695.827125 C982.42657,695.985217 982.90785,696.052256 983.386127,696.023239 C983.954457,696.032245 984.518785,695.922181 985.04309,695.701052 C985.56139,695.482926 986.027661,695.155736 986.409883,694.742496 L986.409883,692.171003 L983.108966,692.171003 L983.108966,693.581822 Z M980.121232,679.603705 L981.635111,678.485056 L983.160997,679.604706 L983.159996,679.603705 L982.579659,677.795656 L984.086534,676.685011 L982.216448,676.685011 L981.635111,674.859951 L981.054774,676.685011 L979.186689,676.685011 L980.693564,677.795656 L980.121232,679.603705 Z M998.921148,691.514621 L998.912143,691.514621 C998.916145,691.301498 998.826093,691.097379 998.666,690.957298 C998.503905,690.811213 998.28778,690.740172 998.070654,690.761184 L996.647828,690.761184 L996.647828,692.245046 L998.070654,692.245046 C998.285779,692.267058 998.499903,692.20102 998.664999,692.061939 C998.827093,691.92586 998.921148,691.725744 998.921148,691.514621 L998.921148,691.514621 Z M999.918727,689.969724 C1000.34197,690.377961 1000.57911,690.930282 1000.57911,691.506617 C1000.57911,692.082951 1000.34197,692.636273 999.918727,693.043509 C999.488477,693.453747 998.917145,693.68188 998.3228,693.679879 L996.638823,693.679879 L996.638823,695.909173 L994.904816,695.909173 L994.904816,689.333342 L998.3228,689.333342 C998.917145,689.331354 999.488477,689.559486 999.918727,689.969724 L999.918727,689.969724 Z M992.210251,692.617262 C992.229262,692.37412 992.194242,692.129979 992.106191,691.902847 C992.017139,691.672713 991.878058,691.465593 991.699955,691.295494 C991.51885,691.122394 991.303725,690.990317 991.067588,690.907269 C990.829449,690.82322 990.576302,690.790201 990.325157,690.809212 L989.213511,690.809212 L989.213511,694.426312 L990.316151,694.426312 C990.566297,694.437318 990.816442,694.398296 991.050578,694.312246 C991.284714,694.225195 991.497837,694.092118 991.675941,693.922019 C991.853044,693.753922 991.993125,693.550804 992.086179,693.324672 C992.177232,693.099542 992.220257,692.859402 992.210251,692.617262 L992.210251,692.617262 Z M994.020302,692.577238 C994.020302,694.580402 992.471403,695.86915 990.324156,695.86915 L987.445484,695.909173 L987.445484,689.333355 L990.317152,689.333355 C992.471403,689.333355 994.020302,690.574075 994.020302,692.577238 L994.020302,692.577238 Z M1002.13802,682.903621 L1003.64589,681.792977 L1001.78481,681.792977 L1001.19447,679.976922 L1000.61413,681.792977 L998.745046,681.792977 L1000.25993,682.903621 L999.679588,684.711671 L1001.19547,683.593022 L1002.74437,684.74469 L1002.13802,682.903621 Z M1009,670.393357 L1007.13091,670.393357 L1006.55058,668.577303 L1005.96124,670.393357 L1004.10015,670.393357 L1005.59903,671.487993 L1005.01869,673.303047 L1006.54157,672.242431 L1008.06546,673.321057 L1007.48512,671.504002 L1009,670.393357 Z M1005.51298,691.498612 L1005.50497,691.498612 C1005.49897,691.290491 1005.40491,691.094377 1005.24682,690.958298 C1005.08673,690.817216 1004.87661,690.746175 1004.66348,690.761184 L1003.25767,690.761184 L1003.25767,692.245046 L1004.65448,692.245046 C1004.8716,692.262055 1005.08673,692.193015 1005.25282,692.050933 C1005.41292,691.910851 1005.50697,691.710735 1005.51298,691.498612 L1005.51298,691.498612 Z M1005.96023,693.493771 L1007.35705,695.925182 L1005.31186,695.909173 L1004.15819,693.679879 L1003.25767,693.679879 L1003.25767,695.909173 L1001.49664,695.909173 L1001.49664,689.333355 L1004.94064,689.333355 C1005.25082,689.30834 1005.564,689.346362 1005.85718,689.446421 C1006.15135,689.546479 1006.4195,689.70457 1006.64463,689.911691 C1006.86976,690.11781 1007.04687,690.368956 1007.16493,690.647118 C1007.281,690.924279 1007.33503,691.223452 1007.32403,691.522626 C1007.34404,691.948874 1007.22397,692.370118 1006.97783,692.723323 C1006.72868,693.081531 1006.37247,693.350687 1005.96023,693.493771 L1005.96023,693.493771 Z M1005.3809,674.860952 L1004.79056,676.686011 L1002.92948,676.686011 L1004.43635,677.796656 L1003.85601,679.604706 L1005.3799,678.486056 L1006.89478,679.604706 L1006.31444,677.796656 L1007.83032,676.686011 L1005.96124,676.686011 L1005.3809,674.860952 Z M988.24695,681.825996 L986.377865,681.825996 L985.797528,680.009941 L985.207185,681.826996 L983.337099,681.826996 L984.851979,682.937641 L984.271642,684.745691 L984.272642,684.745691 L985.796527,683.626041 L987.312407,684.745691 L986.73107,682.936641 L988.24695,681.825996 Z M998.492899,662.81996 L1000.00778,661.70131 L1001.57469,662.787941 L1000.95133,661.01191 L1002.4592,659.901265 L1000.59812,659.901265 L1000.00778,658.085211 L999.427442,659.901265 L997.558356,659.901265 L999.073236,661.01191 L998.492899,662.81996 Z M992.026144,660.743754 L993.550029,659.624104 L995.073914,660.743754 L994.493577,658.926699 L996.000452,657.816054 L994.130366,657.816054 L993.550029,656 L992.969692,657.816054 L991.100607,657.816054 L992.606481,658.926699 L992.026144,660.743754 Z M991.646924,669.492835 C991.646924,669.572881 991.646924,669.589891 991.755987,669.589891 L993.507004,669.6059 L995.32606,669.6059 C995.402104,669.6059 995.418114,669.6059 995.418114,669.515848 L995.418114,668.187076 C995.431121,668.074011 995.431121,667.959944 995.418114,667.846879 C995.328061,667.396617 995.070912,666.997386 994.699697,666.728229 C993.918243,666.159899 992.838616,666.248951 992.159221,666.93635 C991.838035,667.266542 991.654929,667.700794 991.646924,668.154057 L991.646924,669.492835 Z M994.374508,671.973275 C994.280453,671.779162 994.121361,671.624072 993.924246,671.536021 C993.725131,671.444968 993.5,671.424956 993.287877,671.478988 C993.113776,671.519011 992.953683,671.607062 992.82761,671.734136 C992.571461,671.985282 992.494416,672.366503 992.632496,672.697695 C992.699535,672.85979 992.812601,672.999871 992.959686,673.10093 C992.985701,673.114938 993.007714,673.13595 993.022723,673.161965 C993.037732,673.18798 993.044736,673.216997 993.043735,673.247014 C993.03573,673.409109 993.043735,673.563198 993.043735,673.725292 L993.043735,674.187561 C993.036731,674.312633 993.083758,674.434704 993.173811,674.521755 C993.263863,674.612807 993.387935,674.661836 993.516009,674.657834 C993.644084,674.657834 993.767155,674.606804 993.858208,674.515751 C993.946259,674.426699 993.993286,674.304628 993.987283,674.179556 L993.987283,673.255019 C993.985282,673.224001 993.992286,673.193984 994.007295,673.166968 C994.022303,673.139952 994.044316,673.116939 994.071332,673.10093 C994.249435,672.979859 994.37851,672.798754 994.435543,672.590633 C994.490575,672.384514 994.469563,672.164386 994.374508,671.973275 L994.374508,671.973275 Z M989.441644,669.98512 C989.582725,669.808018 989.78084,669.680944 990.004971,669.621909 C990.191079,669.593893 990.38219,669.593893 990.568298,669.621909 C990.636337,669.621909 990.653347,669.621909 990.653347,669.541863 L990.653347,668.389194 C990.646343,668.180072 990.660351,667.971951 990.695372,667.765832 C990.785424,667.240527 991.034568,666.752243 991.409786,666.362017 C991.786005,665.97179 992.271287,665.69563 992.808599,665.567555 C992.938674,665.535537 993.070751,665.511523 993.203828,665.494513 L993.203828,665.495514 C993.374927,665.482506 993.547027,665.482506 993.718127,665.495514 L994.004293,665.495514 C994.672681,665.607579 995.277032,665.945775 995.712285,666.446065 C996.146537,666.948357 996.382674,667.582725 996.378671,668.236105 L996.378671,669.516848 C996.378671,669.581886 996.378671,669.6059 996.46272,669.596895 C996.546769,669.589891 996.655832,669.596895 996.748886,669.596895 C997.028049,669.599897 997.295204,669.706959 997.493319,669.897069 C997.691434,670.086179 997.8055,670.342328 997.809502,670.611484 L997.809502,675.476309 C997.804499,675.747466 997.690433,676.005616 997.493319,676.191724 C997.292202,676.381835 997.026047,676.488897 996.748886,676.489897 L990.274127,676.489897 C989.995965,676.488897 989.729811,676.379833 989.529695,676.187722 C989.333581,675.999613 989.222516,675.740462 989.221516,675.468304 L989.221516,670.603479 C989.223517,670.378349 989.300562,670.160222 989.441644,669.98512 L989.441644,669.98512 Z M994.063327,682.968659 L993.48299,681.152605 L992.901653,682.968659 L991.032567,682.968659 L992.539442,684.079304 L991.959105,685.887354 L993.48299,684.768704 L995.006875,685.887354 L994.426538,684.079304 L995.933413,682.968659 L994.063327,682.968659 Z M985.476341,662.787941 L987.000226,661.667291 L988.515106,662.787941 L987.934769,660.978891 L989.449648,659.868246 L987.580563,659.868246 L987.000226,658.052192 L986.410884,659.869247 L984.541798,659.869247 L986.056678,660.979892 L985.476341,662.787941 Z M980.096217,667.376606 L980.096217,667.377606 L981.620102,666.257956 L983.142986,667.377606 L982.562649,665.568556 L984.069524,664.457911 L982.200439,664.457911 L981.619101,662.641857 L981.038764,664.457911 L979.169679,664.457911 L980.676554,665.568556 L980.096217,667.376606 Z M1004.41134,665.568556 L1002.90446,664.457911 L1004.76554,664.457911 L1005.35488,662.641857 L1005.93522,664.457911 L1007.80431,664.457911 L1006.28943,665.567555 L1006.86976,667.376606 L1005.35488,666.256956 L1003.831,667.376606 L1003.83,667.376606 L1004.41134,665.568556 Z" id="GDPR"></path>
        </g>
    </g>
</svg>