<?xml version="1.0" encoding="UTF-8"?>
<svg width="23px" height="23px" viewBox="0 0 23 23" version="1.1" xmlns="http://www.w3.org/2000/svg" xmlns:xlink="http://www.w3.org/1999/xlink">
    <title>65879A5D-DB61-4A7E-95A4-71CC04414B4E</title>
    <g id="Symbols" stroke="none" stroke-width="1" fill="none" fill-rule="evenodd">
        <g id="Footer-xl-desktop" transform="translate(-255.000000, -532.000000)" fill="#FFFFFF">
            <g id="Social-Icons" transform="translate(255.000000, 531.000000)">
                <path d="M19.3665581,20.585445 L15.962451,20.585445 L15.962451,14.6918946 C15.962451,13.2814317 15.4695013,12.4275555 14.2376021,12.4275555 C13.2972934,12.4275555 12.7378573,12.9670457 12.4909076,13.5948679 C12.4016258,13.8180724 12.3788304,14.1324585 12.3788304,14.4458947 L12.3788304,20.585445 L8.88544144,20.585445 L8.88544144,9.80988828 L12.0577957,9.80988828 L12.0653942,11.3324284 C12.5127531,10.6153243 13.6107296,9.48220498 15.4476558,9.48220498 C18.1774001,9.48220498 19.3665581,11.0645829 19.3665581,14.2891766 L19.3665581,20.585445 Z M5.05772054,8.25505475 C3.97209151,8.25505475 3.09162073,7.37458396 3.09162073,6.28895494 C3.09162073,5.2023761 3.97209151,4.32190531 5.05772054,4.32190531 C6.14429938,4.32190531 7.02477017,5.2023761 7.02477017,6.28895494 C7.02477017,7.37458396 6.14429938,8.25505475 5.05772054,8.25505475 L5.05772054,8.25505475 Z M3.35566698,20.585445 L6.7597741,20.585445 L6.7597741,9.80988828 L3.35566698,9.80988828 L3.35566698,20.585445 Z M21.0011754,1.20463981 L1.66026207,1.20463981 C0.74274882,1.20463981 0,1.94738863 0,2.86395207 L0,22.3397379 C0,23.2563014 0.74274882,24 1.66026207,24 L21.0011754,24 C21.9177388,24 22.6614375,23.2563014 22.6614375,22.3397379 L22.6614375,2.86395207 C22.6614375,1.94738863 21.9177388,1.20463981 21.0011754,1.20463981 L21.0011754,1.20463981 Z" id="LinkedIn"></path>
            </g>
        </g>
    </g>
</svg>