<?xml version="1.0" encoding="UTF-8"?>
<svg width="24px" height="19px" viewBox="0 0 24 19" version="1.1" xmlns="http://www.w3.org/2000/svg" xmlns:xlink="http://www.w3.org/1999/xlink">
    <title>5882211F-47F4-4A0D-9D7B-C7F3B1CA733C</title>
    <g id="Symbols" stroke="none" stroke-width="1" fill="none" fill-rule="evenodd">
        <g id="Footer-xl-desktop" transform="translate(-300.000000, -533.000000)" fill="#FFFFFF">
            <g id="Social-Icons" transform="translate(255.000000, 531.000000)">
                <path d="M65.9183879,7.10274929 C65.9316852,7.3031585 65.9316852,7.50451752 65.9316852,7.70682634 C65.9316852,13.8872184 61.2272927,21.0145677 52.6248936,21.0145677 L52.6248936,21.0107684 C50.0841608,21.0136179 47.5947175,20.2860659 45.4567027,18.9135953 C45.8261775,18.9572864 46.1975519,18.9800818 46.5698761,18.9810316 C48.6755975,18.9829312 50.7214811,18.276275 52.3779439,16.9750399 C50.3767012,16.9370476 48.6214585,15.6320132 48.0088332,13.726701 C48.7097905,13.8625234 49.4316436,13.834979 50.1202534,13.6469173 C47.9385475,13.206207 46.3685171,11.2885473 46.3685171,9.06220046 L46.3685171,9.00331245 C47.0181848,9.36518879 47.7466866,9.56654781 48.491335,9.58839336 C46.4359533,8.21592272 45.8014825,5.48237911 47.0428798,3.34531409 C49.4173965,6.26691942 52.9212333,8.0430579 56.6815179,8.23111962 C56.3044447,6.60695021 56.8201897,4.90489665 58.0349925,3.76322903 C59.9184591,1.99183958 62.8809061,2.08302102 64.6522956,3.96648765 C65.6989825,3.7594298 66.703878,3.3757079 67.6213912,2.83051887 C67.2728122,3.91424829 66.541461,4.83366115 65.5650598,5.41779225 C66.4930209,5.30856449 67.3981867,5.05971514 68.2520629,4.68169208 C67.6242406,5.62105088 66.8340015,6.44073404 65.9183879,7.10274929" id="Twitter"></path>
            </g>
        </g>
    </g>
</svg>