<?xml version="1.0" encoding="UTF-8"?>
<svg width="33px" height="24px" viewBox="0 0 33 24" version="1.1" xmlns="http://www.w3.org/2000/svg" xmlns:xlink="http://www.w3.org/1999/xlink">
    <title>205D8893-8E2F-428F-87A5-6084A3535283</title>
    <g id="Symbols" stroke="none" stroke-width="1" fill="none" fill-rule="evenodd">
        <g id="Footer-xl-desktop" transform="translate(-346.000000, -531.000000)" fill="#FFFFFF">
            <g id="Social-Icons" transform="translate(255.000000, 531.000000)">
                <path d="M104.072977,17.0623271 L112.532905,12.1774714 L104.072977,7.29261565 L104.072977,17.0623271 Z M123.61145,12.1774714 C123.61145,12.1774714 123.61145,17.4764428 122.931388,20.0152761 C122.557165,21.4171907 121.453489,22.5199163 120.052524,22.8950899 C117.512741,23.5751515 107.329864,23.5751515 107.329864,23.5751515 C107.329864,23.5751515 97.1460367,23.5751515 94.6062537,22.8950899 C93.2052888,22.5199163 92.1016135,21.4171907 91.7273897,20.0152761 C91.0473281,17.4764428 91.0473281,12.1774714 91.0473281,12.1774714 C91.0473281,12.1774714 91.0473281,6.87944975 91.7273897,4.3396667 C92.1016135,2.93870185 93.2052888,1.8350265 94.6062537,1.46080267 C97.1460367,0.77979128 107.329864,0.77979128 107.329864,0.77979128 C107.329864,0.77979128 117.512741,0.77979128 120.052524,1.46080267 C121.453489,1.8350265 122.557165,2.93870185 122.931388,4.3396667 C123.61145,6.87944975 123.61145,12.1774714 123.61145,12.1774714 L123.61145,12.1774714 Z" id="YouTube"></path>
            </g>
        </g>
    </g>
</svg>